<svg width="161" height="28" viewBox="0 0 161 28" fill="none" xmlns="http://www.w3.org/2000/svg">
<path d="M14.9647 26.9013L13.5887 23.2032H5.84828L4.47221 26.9013H0L7.65437 7.37842H11.6106L19.523 26.9013H14.9647ZM9.71847 12.5387L7.22435 19.505H12.2986L9.71847 12.5387Z" fill="#43ACDF"/>
<path d="M55.2998 25.1813C53.7517 26.6433 51.8596 27.3314 49.5375 27.3314C47.2154 27.3314 45.3233 26.6433 43.7753 25.1813C42.2272 23.7192 41.4531 21.9131 41.4531 19.591V7.37842H45.6673V19.333C45.6673 20.537 46.0114 21.4831 46.6994 22.1711C47.3874 22.8591 48.3335 23.2892 49.4515 23.2892C50.5696 23.2892 51.5156 22.9451 52.2037 22.1711C52.8917 21.4831 53.2357 20.451 53.2357 19.333V7.37842H57.4499V19.591C57.5359 21.8271 56.8479 23.7192 55.2998 25.1813Z" fill="#43ACDF"/>
<path d="M72.8456 26.9013L71.4695 23.2032H63.7291L62.3531 26.9013H57.8809L65.5353 7.37842H69.4914L77.4038 26.9013H72.8456ZM67.5993 12.5387L65.1052 19.505H70.1795L67.5993 12.5387Z" fill="#43ACDF"/>
<path d="M98.9059 7.46448H101.486L95.3797 26.9875H93.1436L87.8114 13.1407L82.5651 26.9875H80.415L74.1367 7.46448H76.7168L81.619 22.9452L87.2954 7.80852H88.3274L94.1757 22.9452L98.9059 7.46448Z" fill="#43ACDF"/>
<path d="M115.848 7.46448H118.256V26.9875H115.848V18.129H105.699V26.9875H103.291V7.46448H105.699V15.8069H115.848V7.46448Z" fill="#43ACDF"/>
<path d="M124.621 24.5793H133.565V26.9013H122.213V7.37842H133.221V9.70049H124.621V15.7208H132.533V17.9569H124.621V24.5793Z" fill="#43ACDF"/>
<path d="M138.467 24.5793H147.411V26.9013H136.059V7.37842H147.067V9.70049H138.467V15.7208H146.379V17.9569H138.467V24.5793Z" fill="#43ACDF"/>
<path d="M152.398 24.6653H160.999V26.9875H149.904V7.46448H152.312V24.6653H152.398Z" fill="#43ACDF"/>
<path d="M30.1008 23.1172C29.6708 23.2032 29.2407 23.2032 28.8967 23.2032C25.5426 23.2032 22.7904 20.4511 22.7904 17.0969C22.7904 12.8827 27.0046 8.23847 28.8967 6.34638C30.7888 8.23847 34.917 12.7967 34.917 17.0969C34.917 17.6129 34.831 18.129 34.659 18.645V18.731L37.6692 22.3432L37.7552 22.1711C38.6152 20.6231 39.1313 18.817 39.1313 17.0969C39.1313 8.49649 28.9827 0.842087 28.8967 0.842087L28.8107 0.756104L28.7247 0.842087C28.6387 0.928091 18.4902 8.7545 18.4902 17.0969C18.4902 22.7732 23.1345 27.4174 28.8107 27.4174C30.1868 27.4174 31.4769 27.1594 32.7669 26.6434L32.9389 26.5574L30.1008 23.1172Z" fill="#43ACDF"/>
<path d="M32.4242 17.7849H26.9199L35.2623 27.5034H40.7666L32.4242 17.7849Z" fill="#43ACDF"/>
</svg>
