<svg width="194" height="42" viewBox="0 0 194 42" fill="none" xmlns="http://www.w3.org/2000/svg">
<g clip-path="url(#clip0_55_1488)">
<path fill-rule="evenodd" clip-rule="evenodd" d="M147.116 24.0577C147.116 25.4502 147 28.5244 145.962 30.6132C144.646 33.2839 142.233 33.979 140.219 33.979C138.209 33.979 135.795 33.2839 134.481 30.6132C133.442 28.5244 133.325 25.4502 133.325 24.0577V0.677734H122.641V25.858C122.641 28.9292 123.046 33.2839 126.262 36.8814C130.397 41.5205 136.658 41.9874 140.219 41.9874C143.783 41.9874 150.045 41.5205 154.18 36.8814C157.402 33.2839 157.8 28.9292 157.8 25.858V0.677734H147.116V24.0577Z" fill="#43ACDF"/>
<path fill-rule="evenodd" clip-rule="evenodd" d="M100.57 32.5974H100.45L91.6515 0.69043H80.4023L93.6951 41.2996H106.755L120.28 0.69043H109.428L100.57 32.5974Z" fill="#43ACDF"/>
<mask id="mask0_55_1488" style="mask-type:alpha" maskUnits="userSpaceOnUse" x="41" y="0" width="41" height="42">
<path fill-rule="evenodd" clip-rule="evenodd" d="M81.6397 0H41.4375V41.9998H81.6397V0Z" fill="white"/>
</mask>
<g mask="url(#mask0_55_1488)">
<path fill-rule="evenodd" clip-rule="evenodd" d="M68.1489 30.688C66.8837 32.4847 64.7596 33.9922 61.5448 33.9922C58.3248 33.9922 56.1989 32.4847 54.936 30.688C52.7538 27.7282 52.466 23.6092 52.466 20.9986C52.466 18.3865 52.7538 14.2688 54.936 11.3125C56.1989 9.51531 58.3248 8.00548 61.5448 8.00548C64.7596 8.00548 66.8837 9.51531 68.1489 11.3125C70.3287 14.2688 70.6196 18.3865 70.6196 20.9986C70.6196 23.6092 70.3287 27.7282 68.1489 30.688ZM61.3841 0C57.9473 0.0154065 51.4759 0.540414 46.7246 5.39465C42.0185 10.2098 41.4375 16.9976 41.4375 20.9986C41.4375 25.0024 42.0185 31.7891 46.7246 36.6012C51.5511 41.5324 58.1534 42 61.5452 42C64.934 42 71.541 41.5324 76.3661 36.6012C81.0747 31.7891 81.6397 25.0024 81.6397 20.9986C81.6397 16.9976 81.0747 10.2098 76.3661 5.39465C71.6168 0.540414 65.1401 0.0154065 61.7063 0H61.3841Z" fill="#43ACDF"/>
</g>
<mask id="mask1_55_1488" style="mask-type:alpha" maskUnits="userSpaceOnUse" x="161" y="0" width="31" height="42">
<path fill-rule="evenodd" clip-rule="evenodd" d="M191.269 42H161.293V0H191.269V42Z" fill="white"/>
</mask>
<g mask="url(#mask1_55_1488)">
<path fill-rule="evenodd" clip-rule="evenodd" d="M187.653 20.0723C185.529 18.3309 181.68 17.0533 179.67 16.533L179.04 16.3552C175.708 15.4302 173.755 14.6771 172.893 13.5738C172.546 13.1702 172.313 12.442 172.313 11.6847C172.313 10.6886 172.792 9.48806 174.387 8.75744C176.042 7.99895 177.917 7.94563 179.291 8.00489C181.638 8.11214 185.945 9.24926 188.033 11.575C188.033 11.575 189.495 8.56366 188.804 6.02455C188.012 3.1062 185.823 1.50155 183.612 0.77329C181.885 0.205618 179.362 0.00888839 177.933 0H177.658C173.993 0.0177769 170.773 0.603225 167.726 2.14506C163.181 4.46553 161.293 8.12576 161.293 12.5865C161.293 14.1545 161.631 16.0696 162.267 17.5201C163.759 20.7722 167.152 22.7981 170.305 23.7841L171.973 24.3073C174.901 25.2324 177.144 25.7556 178.692 26.9745C179.67 27.7277 180.246 28.5962 180.246 29.9919C180.246 31.3856 179.553 32.2245 178.839 32.7763C177.639 33.7083 175.3 33.9927 173.636 33.9927C170.884 33.9927 166.279 32.9166 162.61 28.8659C162.61 28.8659 161.445 32.3211 162.061 35.0179C162.678 37.7134 165.014 39.4319 167.067 40.3954C169.303 41.4561 172.352 42 174.596 42C178.558 42 183.118 41.3618 186.678 38.6923C188.97 36.9544 191.269 33.8789 191.269 28.5962C191.269 25.7005 190.583 22.4515 187.653 20.0723Z" fill="#43ACDF"/>
</g>
<path fill-rule="evenodd" clip-rule="evenodd" d="M27.9379 28.1556H27.8212C27.8212 28.1556 21.4447 15.1934 18.5912 9.40291C15.7463 3.60887 9.91879 0.526367 4.68899 0.526367H0.578125V41.2422H10.4241L10.0817 13.437H10.1984C10.1984 13.437 17.7407 28.4436 19.8636 32.579C22.9527 38.5912 27.1933 41.2422 32.8922 41.2422H37.5551V0.526367H27.7643L27.9379 28.1556Z" fill="#43ACDF"/>
</g>
<defs>
<clipPath id="clip0_55_1488">
<rect width="192.436" height="42" fill="white" transform="translate(0.578125)"/>
</clipPath>
</defs>
</svg>
