<svg width="229" height="42" viewBox="0 0 229 42" fill="none" xmlns="http://www.w3.org/2000/svg">
<path d="M215.201 31.8581C215.141 32.3303 214.964 33.5724 213.36 33.7337H199.265C197.66 33.5724 197.367 32.3303 197.307 31.8581V9.91999C197.367 9.44669 197.589 8.44065 199.194 8.2793H213.366C214.971 8.44065 215.141 9.44669 215.201 9.91999V31.8581ZM220.081 0.0135848H192.427C188.272 0.351572 184.762 2.47631 184.293 7.22966V34.3904C184.762 39.1438 188.272 41.662 192.427 42H220.081C224.236 41.662 227.746 39.1438 228.214 34.3904V7.22966C227.746 2.47631 224.236 0.351572 220.081 0.0135848ZM108.163 8.2793H95.7993V0.0135848H133.54V8.2793H121.176V42H108.163V8.2793ZM91.8957 8.2793V0.0135848H58.0594V42L92.3455 41.991L92.3578 33.7343H71.1062L71.1083 24.7417H91.8956V16.4963H71.1083V8.27931L91.8957 8.2793ZM167.376 14.7871C167.376 15.6958 167.151 16.4929 165.534 16.4929H150.458V8.25156H165.553C167.39 8.25156 167.376 9.4631 167.376 10.2195V14.7871ZM170.98 25.6781C175.04 25.3503 179.088 22.5643 179.088 17.9887V7.62313C178.616 2.89186 175.096 0.336855 170.922 0H137.443L137.445 42H150.458V25.6781H155.637L164.096 42H179.062L168.989 25.6781H170.98ZM31.1215 42L39.8406 15.6273V42H52.8543V0.0135848H35.2862L26.8271 21.0074L18.3679 0.0135848H0.799805V42H13.8136V15.6273L22.5971 42H31.1215Z" fill="#43ACDF"/>
</svg>
